<svg style="height: 16px; width: 16px;" width="24px" viewBox="0 0 16 16" fill="none" xmlns="http://www.w3.org/2000/svg">
<path d="M13.6441 12.717L11.0324 10.1058C11.7894 9.19704 12.1669 8.0314 12.0863 6.8514C12.0057 5.6714 11.4733 4.56789 10.5999 3.77042C9.72643 2.97295 8.57914 2.54292 7.3967 2.56979C6.21426 2.59666 5.0877 3.07837 4.25137 3.9147C3.41504 4.75103 2.93333 5.87759 2.90646 7.06003C2.87959 8.24247 3.30962 9.38976 4.10709 10.2632C4.90456 11.1367 6.00807 11.6691 7.18807 11.7496C8.36807 11.8302 9.53371 11.4527 10.4425 10.6958L13.0536 13.3074C13.0924 13.3462 13.1384 13.377 13.1891 13.3979C13.2397 13.4189 13.294 13.4297 13.3489 13.4297C13.4037 13.4297 13.458 13.4189 13.5086 13.3979C13.5593 13.377 13.6053 13.3462 13.6441 13.3074C13.6829 13.2687 13.7136 13.2226 13.7346 13.172C13.7556 13.1213 13.7664 13.067 13.7664 13.0122C13.7664 12.9574 13.7556 12.9031 13.7346 12.8524C13.7136 12.8018 13.6829 12.7557 13.6441 12.717ZM3.75137 7.17024C3.75137 6.42747 3.97163 5.70137 4.38429 5.08377C4.79696 4.46618 5.38349 3.98482 6.06973 3.70057C6.75596 3.41632 7.51108 3.34195 8.23958 3.48686C8.96809 3.63177 9.63726 3.98945 10.1625 4.51467C10.6877 5.03989 11.0454 5.70907 11.1903 6.43757C11.3352 7.16608 11.2608 7.92119 10.9766 8.60743C10.6923 9.29366 10.211 9.8802 9.59338 10.2929C8.97578 10.7055 8.24969 10.9258 7.50691 10.9258C6.51122 10.9247 5.55662 10.5287 4.85256 9.82459C4.1485 9.12053 3.75247 8.16593 3.75137 7.17024Z" fill="#1C7E82" stroke="#1C7E82" stroke-width="0.319444"/>
</svg>
