<svg width="649" height="204" viewBox="0 0 649 204" fill="none" xmlns="http://www.w3.org/2000/svg">
<path d="M608.006 0.607169C623.135 0.485737 633.383 0.850041 646.072 0L649 17.0007L648.268 17.2436C643.754 8.50038 629.479 6.436 614.472 5.82883C613.862 8.98611 613.374 13.8435 613.374 21.1295V64.9671C613.374 80.875 615.936 85.4895 615.936 85.4895H599.831C599.831 85.4895 602.394 80.875 602.394 64.9671V21.1295C602.394 13.8435 601.906 8.98611 601.295 5.82883C586.289 6.436 572.014 8.50038 567.5 17.2436L566.768 17.0007L569.696 0C582.385 0.850041 592.877 0.485737 608.006 0.607169Z" fill="#FEFFF6"/>
<path d="M479.765 0.485853H493.918L547.601 70.1889C547.723 68.6103 547.723 66.9102 547.723 64.9673V21.1296C547.723 5.10034 545.16 0.485853 545.16 0.485853H557.605C557.605 0.485853 555.043 5.10034 555.043 21.1296V64.9673C555.043 73.2248 555.775 78.4464 556.385 81.6037L558.947 85.4896H545.404L491.722 15.908C491.6 17.4866 491.6 19.1867 491.6 21.1296V64.9673C491.6 80.8751 494.162 85.4896 494.162 85.4896H481.717C481.717 85.4896 484.279 80.8751 484.279 64.9673V21.1296C484.279 12.9936 483.669 7.77189 482.937 4.61461L479.765 0.485853Z" fill="#FEFFF6"/>
<path d="M465.784 0.485853C465.784 0.485853 463.222 5.10034 463.222 21.1296V64.9673C463.222 80.8751 465.784 85.4896 465.784 85.4896H449.923C449.923 85.4896 452.485 80.8751 452.485 64.9673V21.1296C452.485 5.10034 449.923 0.485853 449.923 0.485853H465.784Z" fill="#FEFFF6"/>
<path d="M403.896 0.485756C422.075 0.485756 433.3 7.77179 433.3 23.3153C433.3 35.9445 422.441 42.3804 411.704 45.052L429.639 71.7675C432.934 76.6248 436.838 82.0893 442.328 85.0038V85.4895H423.661C423.539 83.0608 417.683 73.589 414.145 68.1244L399.87 46.3878C395.6 46.3878 390.841 46.3878 385.961 45.902L386.083 64.9672C386.205 80.875 389.743 85.4895 389.743 85.4895H371.198C371.198 85.4895 374.127 80.875 374.371 64.9672L374.981 21.1295C375.225 5.10024 371.808 0.485756 371.808 0.485756H403.896ZM385.961 39.3446C390.353 40.3161 392.305 40.8018 398.65 40.8018C410.606 40.8018 421.587 36.1873 421.587 24.4082C421.587 12.6291 412.071 4.97881 399.87 4.97881C394.99 4.97881 390.719 5.22168 387.181 5.82885C386.449 8.98613 385.839 13.9649 385.839 21.1295L385.961 39.3446Z" fill="#FEFFF6"/>
<path d="M336.024 0.485853C354.203 0.485853 365.428 7.77189 365.428 23.3154C365.428 41.7734 344.808 47.4808 332.486 47.4808C328.094 47.4808 323.091 47.4808 318.089 46.995L318.211 64.9673C318.333 80.8751 321.871 85.4896 321.871 85.4896H303.326C303.326 85.4896 306.254 80.8751 306.498 64.9673L307.109 21.1296C307.353 5.10034 303.936 0.485853 303.936 0.485853H336.024ZM318.089 40.4376C322.481 41.4091 325.653 41.8948 331.998 41.8948C343.954 41.8948 353.715 37.6446 353.715 24.4083C353.715 12.6292 344.198 4.97891 331.998 4.97891C327.118 4.97891 322.847 5.22178 319.309 5.82895C318.577 8.98622 317.967 13.965 317.967 21.1296L318.089 40.4376Z" fill="#FEFFF6"/>
<path d="M228.373 85.4897C228.373 85.4897 230.936 80.8752 230.936 64.9674V21.1297C230.936 5.10046 228.373 0.48597 228.373 0.48597L286.204 0.121673L290.353 17.1224L289.499 17.6082C283.154 6.19336 257.289 6.07193 242.892 6.19336C242.404 9.35065 241.916 14.208 241.916 21.1297V39.2234H261.437C269.124 39.2234 276.566 39.2234 284.008 38.009V46.1451C276.566 44.9308 269.124 44.9308 261.437 44.9308H241.916V64.9674C241.916 70.9176 242.282 76.2607 242.77 79.418C257.289 79.6609 284.252 79.7823 294.379 69.0961L295.233 69.5819L289.865 85.9754L228.373 85.4897Z" fill="#FEFFF6"/>
<path d="M144.357 21.1293C144.357 5.10006 141.795 0.485574 141.795 0.485574H158.022C158.022 2.42852 155.46 5.34293 155.46 21.1293V48.2091C155.46 60.5953 160.828 79.2962 182.301 79.2962C200.846 79.2962 207.923 67.5171 207.923 50.5163V21.1293C207.923 5.10006 205.971 0.485574 205.971 0.485574H217.195C217.195 0.485574 215.243 5.10006 215.243 21.1293V49.9092C215.243 67.76 208.533 87.3108 178.641 87.3108C155.46 87.3108 144.357 71.1601 144.357 50.6378V21.1293Z" fill="#FEFFF6"/>
<path d="M95.0181 0.486035C95.0181 0.486035 92.456 5.10052 92.456 21.1298V64.9674C92.456 70.9177 92.822 75.6536 93.31 78.8109C105.389 79.0538 128.448 79.1752 138.574 68.489L139.428 68.9748L134.06 85.9755L78.9133 85.4898C78.9133 85.4898 81.4754 80.8753 81.4754 64.9674V21.1298C81.4754 5.10052 78.9133 0.486035 78.9133 0.486035H95.0181Z" fill="#FEFFF6"/>
<path d="M32.4735 0.485756C50.6524 0.485756 61.877 7.77179 61.877 19.6723C61.877 32.3014 52.8485 37.5231 43.576 39.5875C61.999 41.7733 68.4653 51.488 68.4653 61.3241C68.4653 75.4105 56.3867 85.4895 33.8155 85.4895C26.0071 85.6109 20.2728 85.4895 10.5123 85.4895H0.507771C0.507771 85.4895 3.67994 80.875 3.67994 64.9671L4.28997 21.1295C4.28997 5.10024 1.1178 0.485756 1.1178 0.485756H32.4735ZM14.5385 36.7945C19.6628 37.766 25.2751 38.0088 29.6673 38.0088C41.6239 38.0088 50.1644 32.7872 50.1644 20.7652C50.1644 12.6291 40.6479 4.97881 28.4472 4.97881C23.567 4.97881 19.2968 5.22168 15.7586 5.82885C15.0265 8.98613 14.4165 13.9649 14.4165 21.1295L14.5385 36.7945ZM14.6605 64.9671C14.6605 70.4317 15.1485 74.5604 15.6366 77.7177C20.2728 79.5392 26.8612 80.1464 30.6433 80.1464C48.0903 80.1464 55.8987 75.0462 55.8987 61.2027C55.8987 48.695 44.3081 43.5948 29.7893 43.4733C25.5191 43.4733 19.6628 43.4733 14.5385 44.0805L14.6605 64.9671Z" fill="#FEFFF6"/>
<path d="M576.873 140.173C576.873 130.779 583.77 116.689 605.912 116.689C615.955 116.689 624.183 119.098 632.411 122.229L634.952 141.859L634.226 142.099C624.183 125.962 609.663 122.711 603.614 122.711C590.788 122.711 586.674 129.575 586.674 136.078C586.674 142.702 593.571 148.241 607.001 152.456L617.407 155.708C632.532 160.405 640.517 167.149 640.517 178.107C640.517 192.559 624.909 203.397 608.09 203.397C598.169 203.397 587.884 199.905 578.809 194.847L575.179 172.809L576.026 172.688C583.286 187.621 598.048 197.135 611.478 197.135C622.489 197.135 629.386 190.993 629.386 182.082C629.386 175.94 626.482 170.521 612.083 165.944L600.589 162.331C584.496 157.273 576.873 149.205 576.873 140.173Z" fill="#FEFFF6"/>
<path d="M501.015 202.193C501.015 202.193 503.556 197.617 503.556 181.841V138.366C503.556 122.469 501.015 117.893 501.015 117.893L558.367 117.532L562.481 134.392L561.634 134.874C555.342 123.553 529.691 123.433 515.413 123.553C514.929 126.684 514.445 131.502 514.445 138.366V156.31H533.805C541.427 156.31 548.808 156.31 556.189 155.105V163.174C548.808 161.97 541.427 161.97 533.805 161.97H514.445V181.841C514.445 187.742 514.808 193.04 515.292 196.171C529.691 196.412 556.431 196.533 566.474 185.935L567.321 186.417L561.997 202.675L501.015 202.193Z" fill="#FEFFF6"/>
<path d="M455.479 117.893C473.507 117.893 484.639 125.119 484.639 140.534C484.639 153.058 473.87 159.441 463.223 162.091L481.009 188.585C484.276 193.402 488.148 198.821 493.593 201.711V202.193H475.08C474.959 199.785 469.151 190.391 465.642 184.972L451.486 163.415C447.251 163.415 442.532 163.415 437.692 162.934L437.813 181.841C437.934 197.617 441.443 202.193 441.443 202.193H423.052C423.052 202.193 425.956 197.617 426.198 181.841L426.803 138.366C427.045 122.47 423.657 117.893 423.657 117.893H455.479ZM437.692 156.43C442.048 157.394 443.984 157.876 450.276 157.876C462.134 157.876 473.023 153.299 473.023 141.618C473.023 129.936 463.585 122.349 451.486 122.349C446.646 122.349 442.411 122.59 438.902 123.192C438.176 126.323 437.571 131.261 437.571 138.366L437.692 156.43Z" fill="#FEFFF6"/>
<path d="M340.783 138.367C340.783 122.47 338.242 117.894 338.242 117.894H354.335C354.335 119.821 351.794 122.711 351.794 138.367V165.222C351.794 177.506 357.117 196.052 378.413 196.052C396.804 196.052 403.822 184.37 403.822 167.51V138.367C403.822 122.47 401.886 117.894 401.886 117.894H413.018C413.018 117.894 411.082 122.47 411.082 138.367V166.908C411.082 184.611 404.427 204 374.783 204C351.794 204 340.783 187.983 340.783 167.631V138.367Z" fill="#FEFFF6"/>
<path d="M288.815 118.014C303.818 117.894 313.982 118.255 326.565 117.412L329.469 134.272L328.743 134.513C324.267 125.842 310.11 123.795 295.227 123.193C294.622 126.324 294.138 131.141 294.138 138.366V181.841C294.138 197.617 296.679 202.193 296.679 202.193H280.708C280.708 202.193 283.249 197.617 283.249 181.841V138.366C283.249 131.141 282.765 126.324 282.16 123.193C267.277 123.795 253.121 125.842 248.644 134.513L247.918 134.272L250.822 117.412C263.405 118.255 273.811 117.894 288.815 118.014Z" fill="#FEFFF6"/>
<path d="M161.109 117.894H175.144L228.383 187.02C228.504 185.454 228.504 183.768 228.504 181.841V138.367C228.504 122.47 225.963 117.894 225.963 117.894H238.304C238.304 117.894 235.763 122.47 235.763 138.367V181.841C235.763 190.03 236.489 195.209 237.094 198.34L239.635 202.194H226.205L172.966 133.188C172.845 134.754 172.845 136.44 172.845 138.367V181.841C172.845 197.617 175.386 202.194 175.386 202.194H163.045C163.045 202.194 165.586 197.617 165.586 181.841V138.367C165.586 130.298 164.981 125.12 164.255 121.988L161.109 117.894Z" fill="#FEFFF6"/>
<path d="M87.5685 202.193C87.5685 202.193 90.1094 197.617 90.1094 181.84V138.366C90.1094 122.469 87.5685 117.893 87.5685 117.893L144.921 117.532L149.035 134.392L148.188 134.873C141.896 123.553 116.245 123.433 101.967 123.553C101.483 126.684 100.999 131.501 100.999 138.366V156.31H120.358C127.981 156.31 135.362 156.31 142.743 155.105V163.174C135.362 161.97 127.981 161.97 120.358 161.97H100.999V181.84C100.999 187.741 101.362 193.04 101.846 196.171C116.245 196.412 142.985 196.533 153.027 185.935L153.874 186.417L148.551 202.674L87.5685 202.193Z" fill="#FEFFF6"/>
<path d="M17.3024 117.894C17.7864 122.35 19.1174 128.853 21.9003 135.717L43.0746 186.658L64.007 131.984C65.096 128.371 67.3949 120.905 67.3949 117.894H78.2845C73.9287 125.12 72.1137 130.539 69.2098 137.765L44.4056 200.387L37.7508 202.073L14.7615 147.278C14.7615 147.278 6.2918 127.649 0 117.894H17.3024Z" fill="#FEFFF6"/>
</svg>
