<svg width="361" height="24" viewBox="0 0 361 24" fill="none" xmlns="http://www.w3.org/2000/svg">
<path d="M166.2 0.166078C170.319 0.132862 173.109 0.23251 176.563 0L177.361 4.65018L177.161 4.71661C175.932 2.32509 172.046 1.76042 167.961 1.59435C167.795 2.45795 167.662 3.78657 167.662 5.7795V17.7703C167.662 22.1215 168.359 23.3837 168.359 23.3837H163.975C163.975 23.3837 164.672 22.1215 164.672 17.7703V5.7795C164.672 3.78657 164.539 2.45795 164.373 1.59435C160.288 1.76042 156.402 2.32509 155.173 4.71661L154.973 4.65018L155.771 0C159.225 0.23251 162.081 0.132862 166.2 0.166078Z" fill="#FEFFF6"/>
<path d="M131.287 0.132896H135.14L149.755 19.1986C149.789 18.7668 149.789 18.3018 149.789 17.7703V5.77954C149.789 1.39509 149.091 0.132896 149.091 0.132896H152.479C152.479 0.132896 151.781 1.39509 151.781 5.77954V17.7703C151.781 20.029 151.981 21.4573 152.147 22.3209L152.844 23.3838H149.157L134.543 4.35127C134.509 4.78307 134.509 5.24809 134.509 5.77954V17.7703C134.509 22.1216 135.207 23.3838 135.207 23.3838H131.819C131.819 23.3838 132.516 22.1216 132.516 17.7703V5.77954C132.516 3.5541 132.35 2.12583 132.151 1.26223L131.287 0.132896Z" fill="#FEFFF6"/>
<path d="M127.481 0.132896C127.481 0.132896 126.784 1.39509 126.784 5.77954V17.7703C126.784 22.1216 127.481 23.3838 127.481 23.3838H123.163C123.163 23.3838 123.861 22.1216 123.861 17.7703V5.77954C123.861 1.39509 123.163 0.132896 123.163 0.132896H127.481Z" fill="#FEFFF6"/>
<path d="M110.632 0.132869C115.582 0.132869 118.637 2.1258 118.637 6.37739C118.637 9.83181 115.681 11.5922 112.758 12.323L117.641 19.6304C118.538 20.959 119.601 22.4537 121.095 23.2509V23.3837H116.013C115.98 22.7194 114.386 20.1286 113.423 18.6339L109.536 12.6883C108.374 12.6883 107.078 12.6883 105.75 12.5555L105.783 17.7703C105.816 22.1216 106.78 23.3837 106.78 23.3837H101.731C101.731 23.3837 102.528 22.1216 102.594 17.7703L102.76 5.77951C102.827 1.39506 101.897 0.132869 101.897 0.132869H110.632ZM105.75 10.7618C106.946 11.0276 107.477 11.1604 109.204 11.1604C112.459 11.1604 115.449 9.89824 115.449 6.67633C115.449 3.45442 112.858 1.36184 109.536 1.36184C108.208 1.36184 107.045 1.42828 106.082 1.59435C105.883 2.45796 105.717 3.81979 105.717 5.77951L105.75 10.7618Z" fill="#FEFFF6"/>
<path d="M92.1549 0.132896C97.104 0.132896 100.16 2.12583 100.16 6.37742C100.16 11.4262 94.5464 12.9873 91.1916 12.9873C89.9959 12.9873 88.634 12.9873 87.2722 12.8544L87.3054 17.7703C87.3386 22.1216 88.3019 23.3838 88.3019 23.3838H83.2531C83.2531 23.3838 84.0503 22.1216 84.1167 17.7703L84.2828 5.77954C84.3492 1.39509 83.4192 0.132896 83.4192 0.132896H92.1549ZM87.2722 11.0608C88.468 11.3265 89.3316 11.4594 91.0588 11.4594C94.3139 11.4594 96.9711 10.2968 96.9711 6.67636C96.9711 3.45445 94.3803 1.36187 91.0588 1.36187C89.7301 1.36187 88.5676 1.4283 87.6044 1.59438C87.4051 2.45798 87.239 3.81982 87.239 5.77954L87.2722 11.0608Z" fill="#FEFFF6"/>
<path d="M62.8475 23.3838C62.8475 23.3838 63.545 22.1216 63.545 17.7704V5.77957C63.545 1.39512 62.8475 0.132926 62.8475 0.132926L78.5916 0.0332806L79.721 4.68345L79.4885 4.81632C77.7612 1.69406 70.7196 1.66084 66.8001 1.69406C66.6673 2.55766 66.5344 3.88628 66.5344 5.77957V10.7287H71.8489C73.9415 10.7287 75.9676 10.7287 77.9938 10.3965V12.622C75.9676 12.2898 73.9415 12.2898 71.8489 12.2898H66.5344V17.7704C66.5344 19.3979 66.634 20.8594 66.7669 21.723C70.7196 21.7895 78.0602 21.8227 80.8171 18.8997L81.0496 19.0326L79.5881 23.5167L62.8475 23.3838Z" fill="#FEFFF6"/>
<path d="M39.9747 5.77946C39.9747 1.39501 39.2772 0.132817 39.2772 0.132817H43.6948C43.6948 0.664266 42.9973 1.46144 42.9973 5.77946V13.1865C42.9973 16.5745 44.4588 21.6897 50.3047 21.6897C55.3535 21.6897 57.28 18.4678 57.28 13.8176V5.77946C57.28 1.39501 56.7485 0.132817 56.7485 0.132817H59.8044C59.8044 0.132817 59.2729 1.39501 59.2729 5.77946V13.6515C59.2729 18.5342 57.4461 23.8819 49.3083 23.8819C42.9973 23.8819 39.9747 19.4643 39.9747 13.8508V5.77946Z" fill="#FEFFF6"/>
<path d="M26.5423 0.132945C26.5423 0.132945 25.8448 1.39513 25.8448 5.77959V17.7704C25.8448 19.398 25.9444 20.6934 26.0773 21.557C29.3656 21.6234 35.6434 21.6566 38.4003 18.7336L38.6328 18.8665L37.1713 23.5167L22.1579 23.3838C22.1579 23.3838 22.8554 22.1216 22.8554 17.7704V5.77959C22.8554 1.39513 22.1579 0.132945 22.1579 0.132945H26.5423Z" fill="#FEFFF6"/>
<path d="M9.51497 0.132869C14.4641 0.132869 17.5199 2.1258 17.5199 5.38092C17.5199 8.83534 15.062 10.2636 12.5376 10.8283C17.5531 11.4261 19.3135 14.0834 19.3135 16.7738C19.3135 20.6269 16.0252 23.3837 9.88034 23.3837C7.75454 23.417 6.19342 23.3837 3.53617 23.3837H0.8125C0.8125 23.3837 1.6761 22.1215 1.6761 17.7703L1.84218 5.77951C1.84218 1.39506 0.978577 0.132869 0.978577 0.132869H9.51497ZM4.63229 10.0643C6.02734 10.33 7.55525 10.3965 8.75101 10.3965C12.0061 10.3965 14.3312 8.9682 14.3312 5.67986C14.3312 3.45442 11.7404 1.36184 8.41885 1.36184C7.09023 1.36184 5.92769 1.42828 4.96444 1.59435C4.76515 2.45796 4.59907 3.81979 4.59907 5.77951L4.63229 10.0643ZM4.6655 17.7703C4.6655 19.265 4.79836 20.3943 4.93123 21.2579C6.19342 21.7562 7.98705 21.9223 9.01673 21.9223C13.7666 21.9223 15.8923 20.5272 15.8923 16.7406C15.8923 13.3194 12.7369 11.9244 8.78423 11.8912C7.62168 11.8912 6.02734 11.8912 4.63229 12.0572L4.6655 17.7703Z" fill="#FEFFF6"/>
<path d="M343.19 6.48241C343.19 3.91306 345.068 0.0590321 351.096 0.0590321C353.83 0.0590321 356.07 0.71784 358.31 1.57429L359.002 6.94358L358.804 7.00946C356.07 2.59544 352.117 1.70605 350.47 1.70605C346.978 1.70605 345.858 3.58366 345.858 5.36244C345.858 7.17416 347.736 8.68942 351.392 9.84234L354.225 10.7317C358.343 12.0164 360.517 13.8611 360.517 16.8586C360.517 20.8115 356.268 23.7761 351.689 23.7761C348.988 23.7761 346.188 22.8209 343.717 21.4374L342.729 15.4093L342.96 15.3763C344.936 19.4609 348.955 22.0632 352.611 22.0632C355.609 22.0632 357.486 20.3833 357.486 17.9457C357.486 16.2657 356.696 14.7834 352.776 13.5317L349.647 12.5435C345.266 11.16 343.19 8.95294 343.19 6.48241Z" fill="#FEFFF6"/>
<path d="M322.538 23.4467C322.538 23.4467 323.23 22.1949 323.23 17.8797V5.98824C323.23 1.64011 322.538 0.388373 322.538 0.388373L338.152 0.289553L339.272 4.90121L339.041 5.03297C337.329 1.93657 330.345 1.90363 326.458 1.93657C326.326 2.79302 326.195 4.11064 326.195 5.98824V10.8964H331.465C333.54 10.8964 335.55 10.8964 337.559 10.567V12.774C335.55 12.4446 333.54 12.4446 331.465 12.4446H326.195V17.8797C326.195 19.4938 326.293 20.9432 326.425 21.7996C330.345 21.8655 337.625 21.8985 340.359 18.9997L340.59 19.1315L339.14 23.5784L322.538 23.4467Z" fill="#FEFFF6"/>
<path d="M310.141 0.388449C315.049 0.388449 318.08 2.36487 318.08 6.58125C318.08 10.0071 315.148 11.7529 312.25 12.4776L317.092 19.7245C317.981 21.0421 319.035 22.5244 320.518 23.315V23.4467H315.478C315.445 22.7879 313.864 20.2186 312.908 18.7363L309.054 12.8399C307.901 12.8399 306.617 12.8399 305.299 12.7082L305.332 17.8798C305.365 22.195 306.32 23.4467 306.32 23.4467H301.313C301.313 23.4467 302.104 22.195 302.17 17.8798L302.334 5.98832C302.4 1.64018 301.478 0.388449 301.478 0.388449H310.141ZM305.299 10.9294C306.485 11.1929 307.012 11.3247 308.725 11.3247C311.953 11.3247 314.918 10.0729 314.918 6.87771C314.918 3.68249 312.348 1.60724 309.054 1.60724C307.737 1.60724 306.584 1.67313 305.628 1.83783C305.431 2.69428 305.266 4.04484 305.266 5.98832L305.299 10.9294Z" fill="#FEFFF6"/>
<path d="M278.916 5.98844C278.916 1.64031 278.224 0.388571 278.224 0.388571H282.605C282.605 0.915618 281.914 1.70619 281.914 5.98844V13.3342C281.914 16.6941 283.363 21.7669 289.161 21.7669C294.168 21.7669 296.078 18.5717 296.078 13.96V5.98844C296.078 1.64031 295.551 0.388571 295.551 0.388571H298.582C298.582 0.388571 298.055 1.64031 298.055 5.98844V13.7953C298.055 18.6376 296.243 23.941 288.172 23.941C281.914 23.941 278.916 19.5599 278.916 13.993V5.98844Z" fill="#FEFFF6"/>
<path d="M264.768 0.421447C268.853 0.388507 271.62 0.487329 275.045 0.256746L275.836 4.8684L275.638 4.93428C274.42 2.56258 270.565 2.00259 266.514 1.83789C266.349 2.69434 266.217 4.01195 266.217 5.98838V17.8799C266.217 22.1951 266.909 23.4468 266.909 23.4468H262.561C262.561 23.4468 263.253 22.1951 263.253 17.8799V5.98838C263.253 4.01195 263.121 2.69434 262.956 1.83789C258.905 2.00259 255.051 2.56258 253.832 4.93428L253.634 4.8684L254.425 0.256746C257.85 0.487329 260.683 0.388507 264.768 0.421447Z" fill="#FEFFF6"/>
<path d="M230.001 0.388571H233.822L248.316 19.2964C248.349 18.8681 248.349 18.407 248.349 17.8799V5.98844C248.349 1.64031 247.657 0.388571 247.657 0.388571H251.017C251.017 0.388571 250.325 1.64031 250.325 5.98844V17.8799C250.325 20.1199 250.523 21.5363 250.688 22.3928L251.379 23.4469H247.723L233.229 4.572C233.196 5.00023 233.196 5.4614 233.196 5.98844V17.8799C233.196 22.1951 233.888 23.4469 233.888 23.4469H230.528C230.528 23.4469 231.22 22.1951 231.22 17.8799V5.98844C231.22 3.78144 231.055 2.365 230.857 1.50855L230.001 0.388571Z" fill="#FEFFF6"/>
<path d="M209.98 23.4466C209.98 23.4466 210.672 22.1949 210.672 17.8797V5.98822C210.672 1.64008 209.98 0.388347 209.98 0.388347L225.594 0.289527L226.714 4.90118L226.483 5.03295C224.77 1.93655 217.787 1.90361 213.9 1.93655C213.768 2.793 213.636 4.11062 213.636 5.98822V10.8963H218.907C220.982 10.8963 222.992 10.8963 225.001 10.5669V12.7739C222.992 12.4445 220.982 12.4445 218.907 12.4445H213.636V17.8797C213.636 19.4938 213.735 20.9432 213.867 21.7996C217.787 21.8655 225.067 21.8984 227.801 18.9997L228.031 19.1314L226.582 23.5784L209.98 23.4466Z" fill="#FEFFF6"/>
<path d="M190.85 0.388571C190.982 1.60737 191.345 3.38615 192.102 5.26375L197.867 19.1975L203.565 4.2426C203.862 3.25439 204.488 1.21208 204.488 0.388571H207.452C206.267 2.365 205.772 3.84732 204.982 5.82374L198.229 22.9528L196.417 23.4139L190.159 8.42603C190.159 8.42603 187.853 3.05675 186.14 0.388571H190.85Z" fill="#FEFFF6"/>
</svg>
