<svg width="403" height="25" viewBox="0 0 403 25" fill="none" xmlns="http://www.w3.org/2000/svg">
<path d="M0.939128 0.717734V5.08872C0.939128 5.08872 3.84462 1.18598 6.72408 2.46561C11.4243 4.55438 13.6246 11.6477 8.3132 18.2447C6.87526 20.0302 4.82428 21.9609 0.919922 23.9893H6.19913C6.19913 23.9893 19.0252 13.9546 21.9546 10.6395C25.8578 6.22091 25.2936 3.05577 22.4189 1.50117C19.7275 0.0453696 14.359 0.0251212 10.6653 3.31883C11.3867 4.07708 12.0771 5.18531 12.258 6.26972C13.9805 4.30921 18.6871 0.294141 22.0058 1.63686C23.4021 2.20109 24.3639 4.49848 20.0167 8.97063C15.597 13.5166 9.89875 17.6305 9.89875 17.6305C9.89875 17.6305 12.8234 13.1702 11.7974 7.94217C10.9939 3.84735 7.15753 0.905809 0.937938 0.717734H0.939128Z" fill="#FEFFF6"/>
<path d="M9.57253 4.31289L10.6629 5.74963L11.0652 7.50779C11.0652 7.50779 8.99401 9.48497 8.09768 12.6739C7.25967 15.6581 7.19301 19.3816 12.5198 22.2777C18.6263 25.5976 24.2817 20.8897 24.6674 16.1152C25.1388 10.2908 19.5882 10.7979 16.823 13.6572C17.1301 13.0144 17.3098 12.9251 17.3098 12.9251C20.0107 9.79446 27.1255 9.62543 28.4468 14.2964C29.9264 19.5244 24.146 24.268 18.2538 24.268C13.2959 24.268 9.094 21.5456 6.80377 16.3366C5.20393 12.6989 5.90862 8.32199 9.57253 4.3105V4.31289Z" fill="#FEFFF6"/>
<path d="M207.95 0.582093C212.069 0.548878 214.859 0.648525 218.313 0.416016L219.111 5.06619L218.911 5.13262C217.682 2.7411 213.796 2.17644 209.711 2.01036C209.545 2.87397 209.412 4.20259 209.412 6.19552V18.1863C209.412 22.5376 210.109 23.7998 210.109 23.7998H205.725C205.725 23.7998 206.422 22.5376 206.422 18.1863V6.19552C206.422 4.20259 206.289 2.87397 206.123 2.01036C202.038 2.17644 198.152 2.7411 196.923 5.13262L196.723 5.06619L197.521 0.416016C200.975 0.648525 203.831 0.548878 207.95 0.582093Z" fill="#FEFFF6"/>
<path d="M173.037 0.548911H176.89L191.505 19.6146C191.539 19.1828 191.539 18.7178 191.539 18.1864V6.19555C191.539 1.8111 190.841 0.548911 190.841 0.548911H194.229C194.229 0.548911 193.531 1.8111 193.531 6.19555V18.1864C193.531 20.445 193.731 21.8733 193.897 22.7369L194.594 23.7998H190.907L176.293 4.76729C176.259 5.19909 176.259 5.6641 176.259 6.19555V18.1864C176.259 22.5376 176.957 23.7998 176.957 23.7998H173.569C173.569 23.7998 174.266 22.5376 174.266 18.1864V6.19555C174.266 3.97011 174.1 2.54184 173.901 1.67824L173.037 0.548911Z" fill="#FEFFF6"/>
<path d="M169.231 0.548911C169.231 0.548911 168.534 1.8111 168.534 6.19555V18.1864C168.534 22.5376 169.231 23.7998 169.231 23.7998H164.913C164.913 23.7998 165.611 22.5376 165.611 18.1864V6.19555C165.611 1.8111 164.913 0.548911 164.913 0.548911H169.231Z" fill="#FEFFF6"/>
<path d="M152.382 0.548885C157.332 0.548885 160.387 2.54182 160.387 6.79341C160.387 10.2478 157.431 12.0082 154.508 12.739L159.391 20.0464C160.288 21.375 161.351 22.8697 162.845 23.6669V23.7998H157.763C157.73 23.1354 156.136 20.5446 155.173 19.0499L151.286 13.1044C150.124 13.1044 148.828 13.1044 147.5 12.9715L147.533 18.1863C147.566 22.5376 148.53 23.7998 148.53 23.7998H143.481C143.481 23.7998 144.278 22.5376 144.344 18.1863L144.51 6.19553C144.577 1.81108 143.647 0.548885 143.647 0.548885H152.382ZM147.5 11.1779C148.696 11.4436 149.227 11.5764 150.954 11.5764C154.209 11.5764 157.199 10.3143 157.199 7.09235C157.199 3.87044 154.608 1.77786 151.286 1.77786C149.958 1.77786 148.795 1.84429 147.832 2.01037C147.633 2.87397 147.467 4.23581 147.467 6.19553L147.5 11.1779Z" fill="#FEFFF6"/>
<path d="M133.905 0.548911C138.854 0.548911 141.91 2.54184 141.91 6.79343C141.91 11.8422 136.296 13.4033 132.942 13.4033C131.746 13.4033 130.384 13.4033 129.022 13.2705L129.055 18.1864C129.089 22.5376 130.052 23.7998 130.052 23.7998H125.003C125.003 23.7998 125.8 22.5376 125.867 18.1864L126.033 6.19555C126.099 1.8111 125.169 0.548911 125.169 0.548911H133.905ZM129.022 11.4768C130.218 11.7425 131.082 11.8754 132.809 11.8754C136.064 11.8754 138.721 10.7129 138.721 7.09237C138.721 3.87047 136.13 1.77789 132.809 1.77789C131.48 1.77789 130.318 1.84432 129.354 2.0104C129.155 2.874 128.989 4.23584 128.989 6.19555L129.022 11.4768Z" fill="#FEFFF6"/>
<path d="M104.597 23.7998C104.597 23.7998 105.295 22.5376 105.295 18.1864V6.19558C105.295 1.81113 104.597 0.548942 104.597 0.548942L120.342 0.449296L121.471 5.09947L121.238 5.23233C119.511 2.11007 112.47 2.07686 108.55 2.11007C108.417 2.97368 108.284 4.3023 108.284 6.19558V11.1447H113.599C115.691 11.1447 117.718 11.1447 119.744 10.8125V13.038C117.718 12.7058 115.691 12.7058 113.599 12.7058H108.284V18.1864C108.284 19.814 108.384 21.2754 108.517 22.139C112.47 22.2055 119.81 22.2387 122.567 19.3157L122.8 19.4486L121.338 23.9327L104.597 23.7998Z" fill="#FEFFF6"/>
<path d="M81.7247 6.19547C81.7247 1.81102 81.0272 0.548833 81.0272 0.548833H85.4448C85.4448 1.08028 84.7473 1.87745 84.7473 6.19547V13.6025C84.7473 16.9905 86.2088 22.1057 92.0547 22.1057C97.1035 22.1057 99.03 18.8838 99.03 14.2336V6.19547C99.03 1.81102 98.4985 0.548833 98.4985 0.548833H101.554C101.554 0.548833 101.023 1.81102 101.023 6.19547V14.0676C101.023 18.9502 99.1961 24.2979 91.0583 24.2979C84.7473 24.2979 81.7247 19.8803 81.7247 14.2668V6.19547Z" fill="#FEFFF6"/>
<path d="M68.2923 0.548961C68.2923 0.548961 67.5948 1.81115 67.5948 6.1956V18.1864C67.5948 19.814 67.6944 21.1094 67.8273 21.973C71.1156 22.0394 77.3934 22.0726 80.1503 19.1497L80.3828 19.2825L78.9213 23.9327L63.9079 23.7998C63.9079 23.7998 64.6054 22.5376 64.6054 18.1864V6.1956C64.6054 1.81115 63.9079 0.548961 63.9079 0.548961H68.2923Z" fill="#FEFFF6"/>
<path d="M51.265 0.548885C56.2141 0.548885 59.2699 2.54182 59.2699 5.79694C59.2699 9.25135 56.812 10.6796 54.2876 11.2443C59.3031 11.8422 61.0635 14.4994 61.0635 17.1899C61.0635 21.0429 57.7752 23.7998 51.6303 23.7998C49.5045 23.833 47.9434 23.7998 45.2862 23.7998H42.5625C42.5625 23.7998 43.4261 22.5376 43.4261 18.1863L43.5922 6.19553C43.5922 1.81107 42.7286 0.548885 42.7286 0.548885H51.265ZM46.3823 10.4803C47.7773 10.7461 49.3053 10.8125 50.501 10.8125C53.7561 10.8125 56.0812 9.38422 56.0812 6.09588C56.0812 3.87044 53.4904 1.77786 50.1689 1.77786C48.8402 1.77786 47.6777 1.84429 46.7144 2.01037C46.5151 2.87397 46.3491 4.23581 46.3491 6.19553L46.3823 10.4803ZM46.4155 18.1863C46.4155 19.681 46.5484 20.8104 46.6812 21.674C47.9434 22.1722 49.7371 22.3383 50.7667 22.3383C55.5166 22.3383 57.6423 20.9432 57.6423 17.1566C57.6423 13.7354 54.4869 12.3404 50.5342 12.3072C49.3717 12.3072 47.7773 12.3072 46.3823 12.4733L46.4155 18.1863Z" fill="#FEFFF6"/>
<path d="M384.94 6.89843C384.94 4.32908 386.818 0.475048 392.846 0.475048C395.58 0.475048 397.82 1.13386 400.06 1.99031L400.752 7.35959L400.554 7.42548C397.82 3.01146 393.867 2.12207 392.22 2.12207C388.728 2.12207 387.608 3.99967 387.608 5.77845C387.608 7.59018 389.486 9.10544 393.142 10.2584L395.975 11.1477C400.093 12.4324 402.267 14.2771 402.267 17.2747C402.267 21.2275 398.018 24.1921 393.439 24.1921C390.738 24.1921 387.938 23.2369 385.467 21.8534L384.479 15.8253L384.71 15.7923C386.686 19.877 390.705 22.4792 394.361 22.4792C397.359 22.4792 399.236 20.7993 399.236 18.3617C399.236 16.6817 398.446 15.1994 394.526 13.9477L391.397 12.9595C387.016 11.576 384.94 9.36896 384.94 6.89843Z" fill="#FEFFF6"/>
<path d="M364.288 23.8627C364.288 23.8627 364.98 22.6109 364.98 18.2957V6.40426C364.98 2.05612 364.288 0.804389 364.288 0.804389L379.902 0.705569L381.022 5.31723L380.791 5.44899C379.079 2.35259 372.095 2.31965 368.208 2.35259C368.076 3.20904 367.945 4.52666 367.945 6.40426V11.3124H373.215C375.29 11.3124 377.3 11.3124 379.309 10.983V13.19C377.3 12.8606 375.29 12.8606 373.215 12.8606H367.945V18.2957C367.945 19.9098 368.043 21.3592 368.175 22.2157C372.095 22.2815 379.375 22.3145 382.109 19.4157L382.34 19.5475L380.89 23.9944L364.288 23.8627Z" fill="#FEFFF6"/>
<path d="M351.891 0.804465C356.799 0.804465 359.83 2.78089 359.83 6.99726C359.83 10.4231 356.898 12.1689 354 12.8936L358.842 20.1405C359.731 21.4581 360.785 22.9404 362.268 23.731V23.8628H357.228C357.195 23.2039 355.614 20.6346 354.658 19.1523L350.804 13.2559C349.651 13.2559 348.367 13.2559 347.049 13.1242L347.082 18.2958C347.115 22.611 348.07 23.8628 348.07 23.8628H343.063C343.063 23.8628 343.854 22.611 343.92 18.2958L344.084 6.40434C344.15 2.0562 343.228 0.804465 343.228 0.804465H351.891ZM347.049 11.3454C348.235 11.6089 348.762 11.7407 350.475 11.7407C353.703 11.7407 356.668 10.4889 356.668 7.29373C356.668 4.09851 354.098 2.02326 350.804 2.02326C349.487 2.02326 348.334 2.08914 347.378 2.25384C347.181 3.11029 347.016 4.46085 347.016 6.40434L347.049 11.3454Z" fill="#FEFFF6"/>
<path d="M320.666 6.40446C320.666 2.05632 319.974 0.804586 319.974 0.804586H324.355C324.355 1.33163 323.664 2.1222 323.664 6.40446V13.7502C323.664 17.1101 325.113 22.1829 330.911 22.1829C335.918 22.1829 337.828 18.9877 337.828 14.376V6.40446C337.828 2.05632 337.301 0.804586 337.301 0.804586H340.332C340.332 0.804586 339.805 2.05632 339.805 6.40446V14.2113C339.805 19.0536 337.993 24.357 329.922 24.357C323.664 24.357 320.666 19.9759 320.666 14.409V6.40446Z" fill="#FEFFF6"/>
<path d="M306.518 0.837463C310.603 0.804523 313.37 0.903345 316.795 0.672761L317.586 5.28442L317.388 5.3503C316.17 2.97859 312.315 2.4186 308.264 2.2539C308.099 3.11035 307.967 4.42797 307.967 6.40439V18.2959C307.967 22.6111 308.659 23.8628 308.659 23.8628H304.311C304.311 23.8628 305.003 22.6111 305.003 18.2959V6.40439C305.003 4.42797 304.871 3.11035 304.706 2.2539C300.655 2.4186 296.801 2.97859 295.582 5.3503L295.384 5.28442L296.175 0.672761C299.6 0.903345 302.433 0.804523 306.518 0.837463Z" fill="#FEFFF6"/>
<path d="M271.751 0.804586H275.572L290.066 19.7124C290.099 19.2842 290.099 18.823 290.099 18.2959V6.40446C290.099 2.05632 289.407 0.804586 289.407 0.804586H292.767C292.767 0.804586 292.075 2.05632 292.075 6.40446V18.2959C292.075 20.5359 292.273 21.9523 292.438 22.8088L293.129 23.8629H289.473L274.979 4.98802C274.946 5.41625 274.946 5.87741 274.946 6.40446V18.2959C274.946 22.6111 275.638 23.8629 275.638 23.8629H272.278C272.278 23.8629 272.97 22.6111 272.97 18.2959V6.40446C272.97 4.19745 272.805 2.78101 272.607 1.92456L271.751 0.804586Z" fill="#FEFFF6"/>
<path d="M251.73 23.8627C251.73 23.8627 252.422 22.6109 252.422 18.2957V6.40423C252.422 2.0561 251.73 0.804363 251.73 0.804363L267.344 0.705543L268.464 5.3172L268.233 5.44896C266.52 2.35256 259.537 2.31962 255.65 2.35256C255.518 3.20901 255.386 4.52663 255.386 6.40423V11.3124H260.657C262.732 11.3124 264.742 11.3124 266.751 10.983V13.19C264.742 12.8606 262.732 12.8606 260.657 12.8606H255.386V18.2957C255.386 19.9098 255.485 21.3592 255.617 22.2156C259.537 22.2815 266.817 22.3145 269.551 19.4157L269.781 19.5475L268.332 23.9944L251.73 23.8627Z" fill="#FEFFF6"/>
<path d="M232.6 0.804586C232.732 2.02338 233.095 3.80216 233.852 5.67977L239.617 19.6136L245.315 4.65862C245.612 3.6704 246.238 1.6281 246.238 0.804586H249.202C248.017 2.78101 247.522 4.26333 246.732 6.23976L239.979 23.3688L238.167 23.8299L231.909 8.84205C231.909 8.84205 229.603 3.47276 227.89 0.804586H232.6Z" fill="#FEFFF6"/>
</svg>
