<svg width="28" height="24" viewBox="0 0 28 24" fill="none" xmlns="http://www.w3.org/2000/svg">
<path d="M0.189128 0.301718V4.6727C0.189128 4.6727 3.09462 0.769962 5.97408 2.04959C10.6743 4.13837 12.8746 11.2317 7.5632 17.8286C6.12526 19.6142 4.07428 21.5449 0.169922 23.5733H5.44913C5.44913 23.5733 18.2752 13.5386 21.2046 10.2235C25.1078 5.80489 24.5436 2.63976 21.6689 1.08516C18.9775 -0.370646 13.609 -0.390894 9.91534 2.90281C10.6367 3.66107 11.3271 4.76929 11.508 5.8537C13.2305 3.89319 17.9371 -0.121875 21.2558 1.22084C22.6521 1.78507 23.6139 4.08246 19.2667 8.55462C14.847 13.1006 9.14875 17.2144 9.14875 17.2144C9.14875 17.2144 12.0734 12.7542 11.0474 7.52615C10.2439 3.43134 6.40753 0.489794 0.187938 0.301718H0.189128Z" fill="#FEFFF6"/>
<path d="M8.82253 3.89687L9.91289 5.33362L10.3152 7.09177C10.3152 7.09177 8.24401 9.06895 7.34768 12.2579C6.50967 15.2421 6.44301 18.9655 11.7698 21.8617C17.8763 25.1816 23.5317 20.4737 23.9174 15.6992C24.3888 9.87481 18.8382 10.3819 16.073 13.2411C16.3801 12.5984 16.5598 12.5091 16.5598 12.5091C19.2607 9.37844 26.3755 9.20941 27.6968 13.8804C29.1764 19.1084 23.396 23.8519 17.5038 23.8519C12.5459 23.8519 8.344 21.1296 6.05377 15.9206C4.45393 12.2829 5.15862 7.90597 8.82253 3.89449V3.89687Z" fill="#FEFFF6"/>
</svg>
