<svg width="178" height="121" viewBox="0 0 178 121" fill="none" xmlns="http://www.w3.org/2000/svg">
<path d="M62.143 0.673828V9.21278C62.143 9.21278 67.8565 2.4272 73.4817 4.92702C82.0415 8.73141 86.9621 23.5443 76.5861 36.4318C73.777 39.9199 69.7703 43.6917 62.143 47.6542H72.4562C72.4562 47.6542 97.5125 28.051 103.235 21.5747C110.86 12.9427 109.758 6.75947 104.142 3.72247C98.8845 0.87849 88.3969 0.838933 81.1811 7.27336C82.5903 8.75465 83.9391 10.9196 84.2925 13.0381C87.6574 9.20812 96.8521 1.36448 103.335 3.98755C106.063 5.08979 107.942 9.57787 99.4496 18.3145C90.8153 27.1952 79.6836 35.2319 79.6836 35.2319C79.6836 35.2319 85.3971 26.5185 83.3926 16.3053C81.823 8.30587 74.2909 1.04124 62.1406 0.673828H62.143Z" fill="#FEFFF6"/>
<path d="M79.0463 9.21531L81.1763 12.0221L81.9623 15.4567C81.9623 15.4567 77.9161 19.3192 76.1651 25.549C74.528 31.3788 74.3978 38.6527 84.804 44.3105C96.7334 50.7961 107.781 41.599 108.535 32.2718C109.456 20.8935 98.6123 21.8842 93.2104 27.4698C93.8103 26.2141 94.1615 26.0397 94.1615 26.0397C99.4379 19.9238 113.337 19.5936 115.918 28.7186C118.809 38.9318 107.516 48.1986 96.0055 48.1986C86.3202 48.1986 78.1115 42.8804 73.6374 32.7043C70.512 25.5979 71.8886 17.0473 79.0463 9.21065V9.21531Z" fill="#FEFFF6"/>
<path d="M165.987 66.1848C170.085 66.1517 172.861 66.2509 176.298 66.0195L177.092 70.6464L176.893 70.7125C175.67 68.333 171.804 67.7711 167.739 67.6059C167.573 68.4652 167.441 69.7871 167.441 71.7701V83.7009C167.441 88.0303 168.135 89.2862 168.135 89.2862H163.773C163.773 89.2862 164.467 88.0303 164.467 83.7009V71.7701C164.467 69.7871 164.335 68.4652 164.169 67.6059C160.104 67.7711 156.238 68.333 155.015 70.7125L154.816 70.6464L155.61 66.0195C159.047 66.2509 161.889 66.1517 165.987 66.1848Z" fill="#FEFFF6"/>
<path d="M131.246 66.1523H135.08L149.621 85.1226C149.655 84.693 149.655 84.2303 149.655 83.7015V71.7707C149.655 67.4082 148.96 66.1523 148.96 66.1523H152.331C152.331 66.1523 151.637 67.4082 151.637 71.7707V83.7015C151.637 85.9488 151.836 87.37 152.001 88.2292L152.695 89.2868H149.027L134.485 70.3496C134.452 70.7792 134.452 71.2419 134.452 71.7707V83.7015C134.452 88.0309 135.146 89.2868 135.146 89.2868H131.775C131.775 89.2868 132.469 88.0309 132.469 83.7015V71.7707C132.469 69.5564 132.304 68.1353 132.105 67.276L131.246 66.1523Z" fill="#FEFFF6"/>
<path d="M127.46 66.1523C127.46 66.1523 126.766 67.4082 126.766 71.7707V83.7015C126.766 88.0309 127.46 89.2868 127.46 89.2868H123.164C123.164 89.2868 123.858 88.0309 123.858 83.7015V71.7707C123.858 67.4082 123.164 66.1523 123.164 66.1523H127.46Z" fill="#FEFFF6"/>
<path d="M110.697 66.1523C115.621 66.1523 118.662 68.1353 118.662 72.3656C118.662 75.8027 115.721 77.5543 112.812 78.2814L117.67 85.5522C118.563 86.8742 119.62 88.3614 121.108 89.1546V89.2868H116.051C116.018 88.6258 114.432 86.048 113.473 84.5608L109.606 78.645C108.45 78.645 107.161 78.645 105.839 78.5128L105.872 83.7015C105.905 88.0309 106.863 89.2868 106.863 89.2868H101.84C101.84 89.2868 102.633 88.0309 102.699 83.7015L102.864 71.7707C102.93 67.4082 102.005 66.1523 102.005 66.1523H110.697ZM105.839 76.7281C107.029 76.9925 107.557 77.1247 109.276 77.1247C112.515 77.1247 115.489 75.8688 115.489 72.663C115.489 69.4573 112.911 67.3752 109.606 67.3752C108.284 67.3752 107.128 67.4413 106.169 67.6065C105.971 68.4658 105.806 69.8208 105.806 71.7707L105.839 76.7281Z" fill="#FEFFF6"/>
<path d="M92.3103 66.1523C97.2346 66.1523 100.275 68.1353 100.275 72.3656C100.275 77.3891 94.6899 78.9424 91.3519 78.9424C90.1621 78.9424 88.8071 78.9424 87.4521 78.8102L87.4851 83.7015C87.5182 88.0309 88.4766 89.2868 88.4766 89.2868H83.4531C83.4531 89.2868 84.2463 88.0309 84.3124 83.7015L84.4777 71.7707C84.5437 67.4082 83.6184 66.1523 83.6184 66.1523H92.3103ZM87.4521 77.0255C88.6418 77.2899 89.5011 77.4221 91.2197 77.4221C94.4585 77.4221 97.1024 76.2654 97.1024 72.663C97.1024 69.4573 94.5246 67.3752 91.2197 67.3752C89.8977 67.3752 88.741 67.4413 87.7826 67.6065C87.5843 68.4658 87.419 69.8208 87.419 71.7707L87.4521 77.0255Z" fill="#FEFFF6"/>
<path d="M63.1484 89.2863C63.1484 89.2863 63.8425 88.0305 63.8425 83.701V71.7702C63.8425 67.4078 63.1484 66.1519 63.1484 66.1519L78.8138 66.0527L79.9374 70.6796L79.7061 70.8118C77.9875 67.7052 70.9811 67.6721 67.0813 67.7052C66.9491 68.5645 66.8169 69.8864 66.8169 71.7702V76.6946H72.1048C74.1869 76.6946 76.2029 76.6946 78.2189 76.3641V78.5784C76.2029 78.2479 74.1869 78.2479 72.1048 78.2479H66.8169V83.701C66.8169 85.3204 66.916 86.7746 67.0482 87.6339C70.9811 87.7 78.285 87.733 81.0281 84.8247L81.2594 84.9569L79.8052 89.4185L63.1484 89.2863Z" fill="#FEFFF6"/>
<path d="M40.3932 71.7707C40.3932 67.4082 39.6992 66.1523 39.6992 66.1523H44.0948C44.0948 66.6811 43.4007 67.4743 43.4007 71.7707V79.1407C43.4007 82.5117 44.8549 87.6013 50.6716 87.6013C55.695 87.6013 57.6119 84.3955 57.6119 79.7686V71.7707C57.6119 67.4082 57.0831 66.1523 57.0831 66.1523H60.1236C60.1236 66.1523 59.5948 67.4082 59.5948 71.7707V79.6034C59.5948 84.4616 57.7771 89.7825 49.6801 89.7825C43.4007 89.7825 40.3932 85.387 40.3932 79.8017V71.7707Z" fill="#FEFFF6"/>
<path d="M27.0266 66.1523C27.0266 66.1523 26.3325 67.4082 26.3325 71.7707V83.7015C26.3325 85.3209 26.4317 86.6098 26.5639 87.4691C29.8357 87.5352 36.082 87.5682 38.8251 84.6599L39.0565 84.7921L37.6023 89.419L22.6641 89.2868C22.6641 89.2868 23.3581 88.0309 23.3581 83.7015V71.7707C23.3581 67.4082 22.6641 66.1523 22.6641 66.1523H27.0266Z" fill="#FEFFF6"/>
<path d="M10.0847 66.1523C15.009 66.1523 18.0495 68.1353 18.0495 71.3741C18.0495 74.8112 15.6039 76.2324 13.0922 76.7942C18.0826 77.3891 19.8342 80.033 19.8342 82.71C19.8342 86.5437 16.5623 89.2868 10.4482 89.2868C8.33307 89.3199 6.77976 89.2868 4.13582 89.2868H1.42578C1.42578 89.2868 2.28506 88.0309 2.28506 83.7015L2.45031 71.7707C2.45031 67.4082 1.59103 66.1523 1.59103 66.1523H10.0847ZM5.22644 76.0341C6.61451 76.2985 8.13477 76.3646 9.32454 76.3646C12.5634 76.3646 14.8768 74.9434 14.8768 71.6716C14.8768 69.4573 12.299 67.3752 8.99405 67.3752C7.67208 67.3752 6.51536 67.4413 5.55693 67.6065C5.35864 68.4658 5.19339 69.8208 5.19339 71.7707L5.22644 76.0341ZM5.25949 83.7015C5.25949 85.1887 5.39169 86.3124 5.52389 87.1717C6.77976 87.6674 8.56441 87.8326 9.58894 87.8326C14.315 87.8326 16.4301 86.4446 16.4301 82.677C16.4301 79.2729 13.2905 77.8848 9.35759 77.8518C8.20087 77.8518 6.61451 77.8518 5.22644 78.017L5.25949 83.7015Z" fill="#FEFFF6"/>
<path d="M157.17 103.301C157.17 100.745 159.038 96.9102 165.036 96.9102C167.756 96.9102 169.985 97.5657 172.214 98.4178L172.902 103.76L172.705 103.826C169.985 99.4339 166.052 98.5489 164.413 98.5489C160.939 98.5489 159.825 100.417 159.825 102.187C159.825 103.99 161.693 105.497 165.331 106.644L168.15 107.529C172.247 108.808 174.41 110.643 174.41 113.626C174.41 117.559 170.182 120.509 165.626 120.509C162.938 120.509 160.152 119.558 157.694 118.181L156.711 112.184L156.94 112.151C158.907 116.215 162.906 118.804 166.544 118.804C169.526 118.804 171.394 117.133 171.394 114.707C171.394 113.036 170.608 111.561 166.707 110.315L163.594 109.332C159.235 107.955 157.17 105.76 157.17 103.301Z" fill="#FEFFF6"/>
<path d="M136.621 120.18C136.621 120.18 137.309 118.934 137.309 114.641V102.809C137.309 98.4825 136.621 97.237 136.621 97.237L152.157 97.1387L153.271 101.727L153.042 101.858C151.337 98.7774 144.389 98.7447 140.521 98.7774C140.39 99.6296 140.259 100.941 140.259 102.809V107.692H145.503C147.568 107.692 149.567 107.692 151.567 107.365V109.561C149.567 109.233 147.568 109.233 145.503 109.233H140.259V114.641C140.259 116.247 140.358 117.689 140.489 118.541C144.389 118.607 151.632 118.639 154.353 115.755L154.582 115.886L153.14 120.311L136.621 120.18Z" fill="#FEFFF6"/>
<path d="M124.288 97.2383C129.171 97.2383 132.187 99.2048 132.187 103.4C132.187 106.809 129.27 108.546 126.385 109.267L131.203 116.477C132.088 117.789 133.137 119.263 134.612 120.05V120.181H129.597C129.565 119.526 127.991 116.969 127.041 115.494L123.206 109.627C122.059 109.627 120.781 109.627 119.47 109.496L119.503 114.642C119.535 118.936 120.486 120.181 120.486 120.181H115.504C115.504 120.181 116.291 118.936 116.356 114.642L116.52 102.81C116.586 98.4837 115.668 97.2383 115.668 97.2383H124.288ZM119.47 107.726C120.65 107.989 121.174 108.12 122.878 108.12C126.09 108.12 129.04 106.874 129.04 103.695C129.04 100.516 126.484 98.451 123.206 98.451C121.895 98.451 120.748 98.5165 119.798 98.6804C119.601 99.5326 119.437 100.876 119.437 102.81L119.47 107.726Z" fill="#FEFFF6"/>
<path d="M93.2195 102.81C93.2195 98.4837 92.5312 97.2383 92.5312 97.2383H96.8904C96.8904 97.7627 96.2021 98.5493 96.2021 102.81V110.119C96.2021 113.462 97.6442 118.51 103.413 118.51C108.395 118.51 110.296 115.33 110.296 110.742V102.81C110.296 98.4837 109.771 97.2383 109.771 97.2383H112.787C112.787 97.2383 112.262 98.4837 112.262 102.81V110.578C112.262 115.396 110.459 120.673 102.429 120.673C96.2021 120.673 93.2195 116.314 93.2195 110.775V102.81Z" fill="#FEFFF6"/>
<path d="M79.1406 97.2713C83.2048 97.2385 85.958 97.3369 89.3666 97.1074L90.1532 101.696L89.9566 101.762C88.7439 99.4017 84.9091 98.8445 80.8778 98.6806C80.7139 99.5328 80.5828 100.844 80.5828 102.81V114.642C80.5828 118.936 81.2711 120.181 81.2711 120.181H76.9447C76.9447 120.181 77.633 118.936 77.633 114.642V102.81C77.633 100.844 77.5019 99.5328 77.338 98.6806C73.3066 98.8445 69.4719 99.4017 68.2592 101.762L68.0625 101.696L68.8491 97.1074C72.2578 97.3369 75.0765 97.2385 79.1406 97.2713Z" fill="#FEFFF6"/>
<path d="M44.5469 97.2383H48.3488L62.7701 116.051C62.8029 115.625 62.8029 115.166 62.8029 114.642V102.81C62.8029 98.4837 62.1146 97.2383 62.1146 97.2383H65.4577C65.4577 97.2383 64.7694 98.4837 64.7694 102.81V114.642C64.7694 116.871 64.9661 118.28 65.1299 119.132L65.8182 120.181H62.1801L47.7589 101.401C47.7261 101.827 47.7261 102.286 47.7261 102.81V114.642C47.7261 118.936 48.4144 120.181 48.4144 120.181H45.0713C45.0713 120.181 45.7596 118.936 45.7596 114.642V102.81C45.7596 100.614 45.5957 99.2048 45.399 98.3526L44.5469 97.2383Z" fill="#FEFFF6"/>
<path d="M24.625 120.18C24.625 120.18 25.3133 118.934 25.3133 114.641V102.809C25.3133 98.4825 24.625 97.237 24.625 97.237L40.1606 97.1387L41.275 101.727L41.0456 101.858C39.3412 98.7774 32.3928 98.7447 28.5253 98.7774C28.3942 99.6296 28.2631 100.941 28.2631 102.809V107.692H33.5072C35.572 107.692 37.5714 107.692 39.5707 107.365V109.561C37.5714 109.233 35.572 109.233 33.5072 109.233H28.2631V114.641C28.2631 116.247 28.3614 117.689 28.4925 118.541C32.3928 118.607 39.6362 118.639 42.3566 115.755L42.586 115.886L41.1439 120.311L24.625 120.18Z" fill="#FEFFF6"/>
<path d="M5.59315 97.2383C5.72426 98.451 6.08479 100.221 6.83863 102.089L12.5744 115.953L18.2445 101.073C18.5395 100.09 19.1622 98.0577 19.1622 97.2383H22.112C20.9321 99.2048 20.4405 100.68 19.6539 102.646L12.9349 119.689L11.1322 120.148L4.90487 105.236C4.90487 105.236 2.61058 99.8931 0.90625 97.2383H5.59315Z" fill="#FEFFF6"/>
</svg>
